<svg xmlns="http://www.w3.org/2000/svg" viewBox="0 0 16.002 16" enable-background="new 0 0 16.002 16"><path d="M10.21.473h-3.591c-1.6 0-2.707.351-3.704 1.174-.784.677-1.252 1.659-1.252 2.629 0 1.495 1.14 3.083 3.252 3.083.203 0 .428-.021.626-.04l-.028.073c-.086.203-.166.395-.166.694 0 .583.281.942.553 1.29l.034.044-.06.004c-.873.061-2.496.171-3.681.9-1.401.833-1.51 2.043-1.51 2.395 0 1.398 1.302 2.809 4.212 2.809 3.384 0 5.154-1.866 5.154-3.71 0-1.364-.8-2.037-1.648-2.752l-.716-.558c-.222-.183-.497-.411-.497-.833 0-.416.275-.69.518-.933l.026-.025c.772-.609 1.649-1.299 1.649-2.793 0-1.502-.939-2.277-1.39-2.651h1.191l.041-.012 1.026-.646.033-.087-.072-.055zm-4.355 14.232c-2.062 0-3.447-.963-3.447-2.397 0-.936.566-1.616 1.682-2.021.895-.302 2.048-.315 2.06-.315.194 0 .293 0 .449.02 1.443 1.026 2.137 1.565 2.137 2.593 0 1.307-1.104 2.12-2.881 2.12zm-.018-7.895c-1.731 0-2.449-2.275-2.449-3.494 0-.619.14-1.095.431-1.454.314-.394.852-.647 1.371-.647 1.589 0 2.468 2.136 2.468 3.612 0 .233 0 .941-.49 1.433-.329.329-.864.55-1.331.55zm9.405.694h-1.892v-1.885l-.078-.078h-.813l-.077.078v1.885h-1.883l-.077.078v.825l.077.078h1.883v1.897l.077.077h.813l.078-.077v-1.898h1.893l.077-.079v-.823l-.078-.078z"/></svg>