<svg xmlns="http://www.w3.org/2000/svg" viewBox="0 0 16.002 16" enable-background="new 0 0 16.002 16"><path d="M16.001 3.038c-.589.261-1.221.438-1.885.517.678-.406 1.197-1.05 1.443-1.815-.635.376-1.338.649-2.086.797-.598-.639-1.451-1.037-2.395-1.037-1.813 0-3.283 1.47-3.283 3.282 0 .257.029.508.085.748-2.728-.137-5.147-1.444-6.766-3.43-.283.484-.444 1.048-.444 1.65 0 1.139.58 2.144 1.46 2.732-.538-.018-1.044-.166-1.487-.412v.041c0 1.59 1.132 2.917 2.633 3.219-.275.074-.565.115-.865.115-.212 0-.417-.021-.618-.06.418 1.304 1.63 2.253 3.066 2.28-1.123.88-2.539 1.404-4.077 1.404-.265 0-.526-.016-.783-.045 1.453.932 3.178 1.476 5.032 1.476 6.038 0 9.34-5.002 9.34-9.34l-.011-.425c.644-.461 1.202-1.039 1.641-1.697z"/></svg>